<svg xmlns="http://www.w3.org/2000/svg" xmlns:xlink="http://www.w3.org/1999/xlink" width="500" zoomAndPan="magnify" viewBox="0 0 375 127.500001" height="170" preserveAspectRatio="xMidYMid meet" version="1.2"><defs><clipPath id="2fba4c9612"><path d="M 0.75 0 L 374.25 0 L 374.25 126.816406 L 0.75 126.816406 Z M 0.75 0 "/></clipPath></defs><g id="e94b9c4e9f"><g clip-rule="nonzero" clip-path="url(#2fba4c9612)"><path style="fill:none;stroke-width:8;stroke-linecap:butt;stroke-linejoin:miter;stroke:#ffffff;stroke-opacity:1;stroke-miterlimit:4;" d="M 0.00119075 -0.00000666667 L 499.954149 -0.00000666667 L 499.954149 169.751633 L 0.00119075 169.751633 Z M 0.00119075 -0.00000666667 " transform="matrix(0.74707,0,0,0.74707,0.74911,0.00000498047)"/></g><g style="fill:#ffffff;fill-opacity:1;"><g transform="translate(46.66038, 88.196839)"><path style="stroke:none" d="M 40.3125 -62.28125 C 46.3125 -62.28125 51.046875 -60.929688 54.515625 -58.234375 C 57.992188 -55.535156 59.734375 -51.570312 59.734375 -46.34375 C 59.734375 -42.207031 58.820312 -37.960938 57 -33.609375 C 55.1875 -29.265625 52.238281 -25.988281 48.15625 -23.78125 C 44.082031 -21.582031 39.515625 -20.539062 34.453125 -20.65625 L 24.78125 -20.65625 L 21.484375 0 L 5.28125 0 L 15.125 -62.28125 Z M 29.25 -49.234375 L 26.84375 -33.703125 L 30.8125 -33.703125 C 35.382812 -33.703125 38.484375 -34.523438 40.109375 -36.171875 C 41.734375 -37.828125 42.546875 -40.3125 42.546875 -43.625 C 42.546875 -45.65625 41.867188 -47.097656 40.515625 -47.953125 C 39.171875 -48.804688 37.007812 -49.234375 34.03125 -49.234375 Z M 29.25 -49.234375 "/></g></g><g style="fill:#ffffff;fill-opacity:1;"><g transform="translate(92.504595, 88.196839)"><path style="stroke:none" d="M 76.578125 -37.171875 C 76.578125 -31.171875 74.84375 -24.945312 71.375 -18.5 C 67.90625 -12.0625 63.003906 -7.023438 56.671875 -3.390625 C 50.335938 0.242188 43.535156 2.0625 36.265625 2.0625 C 27.503906 2.0625 20.398438 -0.507812 14.953125 -5.65625 C 9.503906 -10.800781 6.78125 -17.585938 6.78125 -26.015625 C 6.78125 -32.960938 8.609375 -39.367188 12.265625 -45.234375 C 15.929688 -51.097656 20.914062 -55.75 27.21875 -59.1875 C 33.519531 -62.632812 40.03125 -64.359375 46.75 -64.359375 C 52.09375 -64.359375 57.09375 -63.195312 61.75 -60.875 C 66.40625 -58.5625 70.039062 -55.351562 72.65625 -51.25 C 75.269531 -47.15625 76.578125 -42.460938 76.578125 -37.171875 Z M 38.75 -13.625 C 42.488281 -13.625 45.941406 -14.65625 49.109375 -16.71875 C 52.273438 -18.789062 54.796875 -21.460938 56.671875 -24.734375 C 58.546875 -28.015625 59.484375 -31.253906 59.484375 -34.453125 C 59.484375 -38.410156 57.976562 -41.765625 54.96875 -44.515625 C 51.96875 -47.273438 48.378906 -48.65625 44.203125 -48.65625 C 40.953125 -48.65625 37.726562 -47.773438 34.53125 -46.015625 C 31.332031 -44.253906 28.753906 -41.882812 26.796875 -38.90625 C 24.847656 -35.9375 23.875 -32.632812 23.875 -29 C 23.875 -24.53125 25.265625 -20.847656 28.046875 -17.953125 C 30.828125 -15.066406 34.394531 -13.625 38.75 -13.625 Z M 38.75 -13.625 "/></g></g><g style="fill:#ffffff;fill-opacity:1;"><g transform="translate(157.017254, 88.196839)"><path style="stroke:none" d="M 36.515625 -63.9375 C 43.179688 -63.9375 49.429688 -62.226562 55.265625 -58.8125 L 46.84375 -46.265625 C 43.925781 -49.015625 40.566406 -50.390625 36.765625 -50.390625 C 34.773438 -50.390625 32.96875 -49.820312 31.34375 -48.6875 C 29.71875 -47.5625 28.90625 -46.175781 28.90625 -44.53125 C 28.90625 -43.3125 29.484375 -42.25 30.640625 -41.34375 C 31.804688 -40.4375 33.929688 -39.539062 37.015625 -38.65625 C 41.191406 -37.394531 44.21875 -36.171875 46.09375 -34.984375 C 47.96875 -33.796875 49.425781 -32.332031 50.46875 -30.59375 C 51.519531 -28.863281 52.046875 -26.707031 52.046875 -24.125 C 52.046875 -20.375 51.082031 -16.40625 49.15625 -12.21875 C 47.226562 -8.039062 44.070312 -4.710938 39.6875 -2.234375 C 35.3125 0.242188 30.125 1.539062 24.125 1.65625 C 16.414062 1.65625 9.472656 -0.710938 3.296875 -5.453125 L 12.3125 -18.5 C 16.601562 -14.207031 21.035156 -12.0625 25.609375 -12.0625 C 28.140625 -12.0625 30.269531 -12.722656 32 -14.046875 C 33.738281 -15.367188 34.609375 -17.046875 34.609375 -19.078125 C 34.609375 -21.722656 31.96875 -23.765625 26.6875 -25.203125 C 20.289062 -26.960938 16.15625 -28.847656 14.28125 -30.859375 C 12.414062 -32.867188 11.484375 -35.550781 11.484375 -38.90625 C 11.484375 -45.957031 13.890625 -51.890625 18.703125 -56.703125 C 23.523438 -61.523438 29.460938 -63.9375 36.515625 -63.9375 Z M 36.515625 -63.9375 "/></g></g><g style="fill:#ffffff;fill-opacity:1;"><g transform="translate(199.089037, 88.196839)"><path style="stroke:none" d="M 53.28125 -62.28125 L 51.140625 -48.578125 L 37.75 -48.578125 L 30.0625 0 L 13.875 0 L 21.5625 -48.578125 L 8.171875 -48.578125 L 10.328125 -62.28125 Z M 53.28125 -62.28125 "/></g></g><g style="fill:#ffffff;fill-opacity:1;"><g transform="translate(234.359975, 88.196839)"><path style="stroke:none" d="M 31.3125 -62.28125 L 23.625 -13.71875 L 43.046875 -13.71875 L 40.890625 0 L 5.28125 0 L 15.125 -62.28125 Z M 31.3125 -62.28125 "/></g></g><g style="fill:#ffffff;fill-opacity:1;"><g transform="translate(266.491982, 88.196839)"><path style="stroke:none" d="M 27.671875 -62.28125 L 36.671875 -45.359375 L 50.96875 -62.28125 L 70.390625 -62.28125 L 42.296875 -29.90625 L 37.59375 0 L 21.390625 0 L 26.109375 -29.90625 L 8.265625 -62.28125 Z M 27.671875 -62.28125 "/></g></g></g></svg>